<?xml version="1.0" standalone="no"?>
<!DOCTYPE svg PUBLIC "-//W3C//DTD SVG 20010904//EN"
 "http://www.w3.org/TR/2001/REC-SVG-20010904/DTD/svg10.dtd">
<svg version="1.0" xmlns="http://www.w3.org/2000/svg"
 width="550.000000pt" height="550.000000pt" viewBox="0 0 550.000000 550.000000"
 preserveAspectRatio="xMidYMid meet">
<metadata>
Created by potrace 1.11, written by Peter Selinger 2001-2013
</metadata>
<g transform="translate(0.000000,550.000000) scale(0.100000,-0.100000)"
fill="#000000" stroke="none">
<path d="M0 2750 l0 -2750 2750 0 2750 0 0 2750 0 2750 -2750 0 -2750 0 0
-2750z m2245 1627 c-2 -7 -20 -102 -39 -212 -20 -110 -65 -367 -101 -571 -36
-203 -65 -376 -65 -383 0 -7 39 22 87 65 232 207 431 286 713 286 264 0 447
-59 575 -187 103 -102 153 -222 178 -423 l12 -97 74 -3 c42 -2 79 2 84 7 6 6
32 129 57 273 l46 263 332 3 c237 2 332 -1 332 -9 0 -6 -20 -126 -45 -266 -25
-140 -42 -259 -39 -264 3 -5 77 -9 165 -9 l159 0 -5 -22 c-3 -13 -16 -88 -30
-168 -14 -80 -27 -155 -30 -167 -5 -23 -7 -23 -169 -23 l-165 0 -10 -52 c-41
-208 -111 -637 -111 -680 0 -99 44 -128 196 -128 l96 0 -7 -47 c-14 -100 -76
-427 -81 -432 -11 -12 -417 -20 -538 -11 -277 21 -369 87 -383 275 -7 94 6
189 87 661 39 220 70 404 70 407 0 4 -142 7 -315 7 -173 0 -315 -3 -315 -7 1
-5 98 -66 216 -138 119 -71 219 -135 221 -142 3 -8 -2 -53 -10 -101 -38 -207
-167 -937 -167 -944 0 -5 -209 -8 -465 -8 -256 0 -465 3 -465 6 0 4 43 248 95
543 133 756 135 769 135 858 0 222 -116 320 -344 292 -165 -21 -281 -121 -341
-296 -24 -68 -63 -268 -175 -898 -34 -187 -68 -376 -76 -420 -7 -44 -14 -81
-14 -82 0 -2 -210 -3 -466 -3 l-466 0 6 28 c5 22 189 1067 342 1937 19 110 43
247 54 305 10 58 54 304 96 547 l78 443 460 2 c254 2 464 2 468 0 4 -1 5 -8 3
-15z"/>
</g>
</svg>
